<?xml version="1.0" standalone="no"?><!DOCTYPE svg PUBLIC "-//W3C//DTD SVG 1.1//EN" "http://www.w3.org/Graphics/SVG/1.1/DTD/svg11.dtd"><svg t="1488174286861" class="icon" style="" viewBox="0 0 1024 1024" version="1.1" xmlns="http://www.w3.org/2000/svg" p-id="2914" xmlns:xlink="http://www.w3.org/1999/xlink" width="64" height="64"><defs><style type="text/css"></style></defs><path d="M511.36 407.488c0 0-32.256 6.24-27.456 86.72 0 0 5.216 86.848 13.696 121.92l-22.976-0.032c0 0-36.352-67.424-45.824-104.096 0 0-50.816 24.352-72.8 104.128 0 0-90.016-130.112 35.04-250.912 0 0-38.144-149.312 120.896-297.184 0 0 0 7.68 0 11.52 0 44.32-0.832 132.864-0.832 132.864l-0.64 0c-39.488-0.032-71.424 32.416-71.392 72.48s32.096 72.64 71.584 72.672l0.64 0 0.064 49.952zM474.176 657.984l33.792 306.016-13.792-305.984-20-0.032zM632.8 367.104c1.792-1.92 38.496-150.816-120.896-299.104-0.256 48.256-0.8 144.352-0.8 144.352 0.192 0 0.416 0 0.64 0 39.488 0.032 71.52 32.576 71.584 72.672s-31.936 72.544-71.424 72.48c-0.192 0-0.416 0-0.608 0l0.064 49.952c0 0 32.288 6.336 27.648 86.784 0 0-5.024 86.848-13.408 121.888l22.976 0.032c0 0 34.272-67.552 43.616-104.192 0 0 55.776 24.576 77.792 100 0 0 86.016-130.016-37.184-244.896zM510.848 420.128c-2.752-0.16-22.816 2.24-17.408 105.76 2.176 41.504 8.736 117.472 17.536 164.928l0 1.152c0.032-0.192 0.064-0.384 0.096-0.576 0.032 0.192 0.064 0.384 0.096 0.576l0-1.12c8.704-47.456 15.136-123.392 17.216-164.896 5.216-103.488-14.848-105.984-17.568-105.824l0 0zM512.48 964l33.92-305.92-20-0.032-13.92 305.952zM814.944 513.472c0-80.448-31.392-156-86.432-212.448-6.56-6.72-18.624-10.784-25.344-4.224s-5.664 16.48 0.896 23.2c48.896 50.144 79.936 113.664 79.936 192s-30.624 141.792-79.936 192c-6.592 6.72-7.168 17.184-0.48 23.776s17.568 5.6 24.16-1.088c55.52-56.512 87.168-132.384 87.168-213.216zM296.832 296.736c-56.864 56.704-90.496 134.784-90.496 216.704 0 83.296 33.664 161.28 92.192 218.208 6.752 6.56 17.504 6.4 24.064-0.352s6.4-17.504-0.352-24.064c-52-50.56-81.888-119.776-81.888-193.792 0-72.8 28.928-143.072 79.424-193.472 6.656-6.624 6.624-16.608 0-23.264-10.176-10.208-22.976 0-22.976 0zM512 324c22.08 0 40-17.92 40-40s-17.92-40-40-40c-22.08 0-40 17.92-40 40s17.92 40 40 40z" p-id="2915" fill="#80bd01"></path></svg>