<?xml version="1.0" standalone="no"?><!DOCTYPE svg PUBLIC "-//W3C//DTD SVG 1.1//EN" "http://www.w3.org/Graphics/SVG/1.1/DTD/svg11.dtd"><svg t="1488189831150" class="icon" style="" viewBox="0 0 1024 1024" version="1.1" xmlns="http://www.w3.org/2000/svg" p-id="2030" xmlns:xlink="http://www.w3.org/1999/xlink" width="64" height="64"><defs><style type="text/css"></style></defs><path d="M511.913531 828.620148c-84.866876 0-164.653037-33.048697-224.662783-93.058442-60.009745-60.009745-93.058442-139.795906-93.058442-224.661759 0-84.866876 33.048697-164.654061 93.058442-224.663806 60.009745-60.010769 139.79693-93.058442 224.662783-93.058442 125.843126 0 239.989863 74.424037 290.804179 189.603289l-42.131563 18.58631c-43.453674-98.496292-141.063783-162.140821-248.672616-162.140821-149.800771 0-271.672446 121.872698-271.672446 271.673469 0 149.800771 121.871675 271.672446 271.672446 271.672446 95.836719 0 185.614441-51.385321 234.298234-134.103254l39.684838 23.355941c-27.578102 46.859237-66.962088 86.127589-113.892957 113.560382C623.614565 813.669644 568.25677 828.620148 511.913531 828.620148z" p-id="2031" fill="#80bd01"></path><path d="M822.913681 327.633992" p-id="2032" fill="#80bd01"></path><path d="M827.491952 476.55779 684.310949 394.388349 827.063187 311.474964Z" p-id="2033" fill="#80bd01"></path></svg>