<?xml version="1.0" standalone="no"?><!DOCTYPE svg PUBLIC "-//W3C//DTD SVG 1.1//EN" "http://www.w3.org/Graphics/SVG/1.1/DTD/svg11.dtd"><svg t="1488174511911" class="icon" style="" viewBox="0 0 1024 1024" version="1.1" xmlns="http://www.w3.org/2000/svg" p-id="4606" xmlns:xlink="http://www.w3.org/1999/xlink" width="64" height="64"><defs><style type="text/css"></style></defs><path d="M803.994 464 560 464 560 220.006c0-26.4-21.6-48-48-48l0 0c-26.4 0-48 21.6-48 48L464 464 220.006 464c-26.4 0-48 21.6-48 48l0 0c0 26.4 21.6 48 48 48L464 560l0 243.994c0 26.4 21.6 48 48 48l0 0c26.4 0 48-21.6 48-48L560 560l243.994 0c26.4 0 48-21.6 48-48l0 0C851.994 485.6 830.394 464 803.994 464z" p-id="4607" fill="#80bd01"></path></svg>